<?xml version="1.0" standalone="no"?><!DOCTYPE svg PUBLIC "-//W3C//DTD SVG 1.1//EN" "http://www.w3.org/Graphics/SVG/1.1/DTD/svg11.dtd"><svg t="1528115428159" class="icon" style="" viewBox="0 0 1136 1024" version="1.1" xmlns="http://www.w3.org/2000/svg" p-id="3020" xmlns:xlink="http://www.w3.org/1999/xlink" width="221.875" height="200"><defs><style type="text/css"></style></defs><path d="M711.958963 1013.210592c-4.117011 0-8.375988-0.709829-12.351033-2.129488-11.215306-3.975045-19.875225-13.344794-22.998475-24.844032l-110.591432-400.911687L414.966311 691.373908l-28.109247 160.421461c-1.703591 9.653681-7.098295 18.171635-15.048385 23.708304l-77.229447 54.230972c-10.079579 7.098295-23.140441 8.65992-34.639678 4.117011-11.499237-4.542909-20.017191-14.480521-22.430611-26.689588l-42.589768-202.443366-176.03771-108.887841c-10.505476-6.530431-17.035907-17.887703-17.461805-30.09677-0.425898-12.351033 5.53667-23.992236 15.616248-31.090531l77.229447-54.230972c7.95009-5.678636 17.887703-7.808124 27.399418-6.104533l160.421461 28.109247 128.053237-89.864411L91.709968 154.742825c-8.943851-7.240261-14.054624-18.3136-13.628726-29.812838 0.425898-11.499237 6.104533-22.14668 15.616248-28.819077l103.06724-72.402606c10.789408-7.524192 24.844032-8.801885 36.769167-3.12325l440.094274 206.986275L952.591155 31.658395l0 0c52.101483-36.627201 124.220158-23.85027 160.847359 28.109247 36.627201 52.101483 23.992236 124.220158-28.109247 160.847359L816.303896 409.571607 851.653404 901.483433c0.993761 12.918896-4.968806 25.269929-15.474283 32.652156l-103.06724 72.402606C726.723416 1010.939138 719.34119 1013.210592 711.958963 1013.210592zM587.454873 488.504644c4.117011 0 8.375988 0.709829 12.351033 2.129488 11.215306 3.975045 19.875225 13.344794 22.998475 24.844032l110.591432 400.911687 43.441564-30.522667-35.349508-491.911826c-0.993761-12.918896 4.968806-25.269929 15.474283-32.652156l286.061278-200.881741c18.881464-13.344794 23.566339-39.466519 10.221544-58.489949-13.344794-18.881464-39.608485-23.424373-58.489949-10.221544L698.472203 299.83197c-10.789408 7.666158-24.844032 8.801885-36.769167 3.12325l-440.094274-206.986275-45.713018 32.084292 318.429502 257.668099c8.943851 7.240261 14.054624 18.3136 13.628726 29.812838-0.425898 11.499237-6.104533 22.14668-15.616248 28.819077l-180.438652 126.633578c-7.95009 5.53667-17.887703 7.808124-27.399418 6.104533l-160.421461-28.109247-19.165396 13.48676 141.965895 87.734923c8.517954 5.252738 14.622487 13.770692 16.61001 23.708304l34.355747 163.260779 19.165396-13.48676 28.109247-160.421461c1.703591-9.653681 7.098295-18.171635 15.048385-23.708304l206.134479-144.805213C572.69042 490.776099 580.072647 488.504644 587.454873 488.504644z" fill="#1296db" p-id="3021"></path></svg>